<?xml version="1.0" encoding="utf-8"?>
<!-- Generator: Adobe Illustrator 21.0.0, SVG Export Plug-In . SVG Version: 6.00 Build 0)  -->
<svg version="1.1" xmlns="http://www.w3.org/2000/svg" xmlns:xlink="http://www.w3.org/1999/xlink" x="0px" y="0px"
	  width="760" height="256" viewbox="0 0 949 256">
<style type="text/css">
	.st0{fill:#2961AD;}
	.st1{fill:#6493CD;}
	.st2{fill:#A3C0E5;}
</style>
<g transform="scale(2.1)">
	<polygon class="st0" points="53.4,122 0,90.3 53.5,60.3 106.9,92 	"/>
	<polygon class="st1" points="53.4,92 0,60.3 53.5,30.2 106.9,62 	"/>
	<polygon class="st2" points="53.4,62 0,30.3 53.5,0.2 106.9,32 	"/>
</g>
<g transform="scale(2.1)">
	<path d="M172.3,61.2c7.7-0.3,13.3-2.3,16.8-5.9c3.1-3.2,4.5-7.7,4.3-13.5c-1-12.1-9.7-18.5-26.1-19.3h-27.1c-1,0-1.8,0.8-1.8,1.8
		v66.6c0,1,0.8,1.8,1.8,1.8h0.2c1,0,1.8-0.8,1.8-1.8V61.2h25l26.1,30.9c0.4,0.4,0.9,0.6,1.4,0.6c0.4,0,0.7-0.1,1.1-0.4l0.2-0.1
		c0.4-0.3,0.6-0.7,0.7-1.2c0.1-0.5-0.1-1-0.4-1.3L172.3,61.2z M142.2,25.9l25.1,0c14.4,0.5,21.7,5.7,22.3,16c0.3,4.5-0.8,8-3.2,10.5
		c-3.5,3.6-9.9,5.3-19.1,5h-25.1V25.9z"/>
	<path d="M249,41L249,41c-0.4-0.2-0.9-0.3-1.4-0.1c-0.5,0.2-0.8,0.5-1,0.9L226,87.1l-20-45.6c-0.2-0.4-0.6-0.8-1-1
		c-0.5-0.2-1-0.1-1.4,0.1c-0.8,0.4-1.2,1.4-0.8,2.3l21.1,48l-3,6.7c-2.2,5.2-5,7.9-8.3,7.9l-0.1,0c-1.3,0.2-3.3-0.3-5.8-1.4
		c-0.9-0.4-1.9,0-2.3,0.9c-0.4,0.9-0.1,1.9,0.7,2.4c2.4,1.3,4.6,1.9,6.7,1.9c0.3,0,0.6,0,0.9,0c4.6,0.2,8.6-3.2,11.8-10.1l25.5-55.8
		C250.2,42.4,249.9,41.4,249,41z"/>
	<path d="M300,78.6V58.1c0.1-5.9-1.4-10.4-4.4-13.5c-3.3-3.4-8.6-5-15.6-4.9c-11.6,0.2-19,4.8-22.2,13.6c-0.2,0.5-0.1,1,0.1,1.5
		c0.3,0.5,0.7,0.8,1.2,0.9l0.2,0c0.9,0.2,1.8-0.3,2-1.2c2.4-7.4,8.5-11,18.7-11c5.9-0.2,10.2,0.9,12.9,3.5c2.2,2.1,3.3,5.3,3.4,9.4
		c-2.1,3.1-7.9,4.8-17.4,5.3c-15.1,1-23,7-23.5,18c0.2,8.8,6.3,13.4,18,13.7c10.6-0.4,18.3-4.4,23-11.9c0.3,4.7,1.4,8.3,3.3,10.7
		c0.5,0.6,1.4,0.8,2.2,0.5l0.1,0c0.4-0.2,0.8-0.6,0.9-1.1c0.1-0.5,0.1-1-0.2-1.5C300.9,87.4,300,83.5,300,78.6z M273.3,89.6
		c-9.6-0.2-14.2-3.5-14.2-9.9c0.2-8.7,6.7-13.3,19.9-14.2c8.3-0.4,14-1.7,17.3-4.1v7.3C295.1,81.8,287.6,88.7,273.3,89.6z"/>
	<path d="M339.6,39.8c-8.2,0.2-14.3,4.4-18.4,12.3v-9.9c0-1-0.8-1.8-1.8-1.8h-0.2c-1,0-1.8,0.8-1.8,1.8v48.6c0,1,0.8,1.8,1.8,1.8
		h0.2c1,0,1.8-0.8,1.8-1.8l0-22.8c0.9-15.3,7-23.3,18.5-24.5c10.5,0,15.5,6,15.5,18.4v28.9c0,1,0.8,1.8,1.8,1.8h0.2
		c1,0,1.8-0.8,1.8-1.8V62C359,47.3,352.5,39.8,339.6,39.8z"/>
</g>
</svg>
